 <svg  version="1.0" xmlns="http://www.w3.org/2000/svg"  width="900.000000pt" height="420.000000pt" viewBox="0 0 900.000000 420.000000"  preserveAspectRatio="xMidYMid meet">  <g transform="translate(0.000000,420.000000) scale(0.100000,-0.100000)" fill="#0080c0" stroke="none"> <path d="M2776 3618 c-31 -36 -208 -240 -242 -278 -18 -19 -63 -71 -102 -115 -38 -44 -80 -92 -94 -106 -13 -14 -33 -37 -45 -52 -19 -25 -140 -162 -173 -197 -8 -8 -40 -45 -70 -80 -30 -36 -78 -90 -107 -120 -28 -30 -50 -57 -48 -60 2 -3 272 -4 602 -2 l598 3 55 68 c30 38 64 72 75 75 26 8 2609 8 2629 0 22 -9 20 -27 -6 -55 -13 -14 -48 -54 -78 -89 -64 -75 -54 -63 -154 -173 l-78 -87 -1074 0 c-591 0 -1074 -3 -1074 -7 0 -5 -15 -24 -33 -44 -17 -20 -55 -62 -84 -95 -28 -32 -59 -68 -70 -79 -10 -11 -43 -49 -73 -85 -47 -55 -80 -92 -145 -164 -6 -6 -41 -47 -79 -91 -38 -44 -97 -111 -132 -150 -72 -81 -229 -259 -259 -294 -11 -13 -29 -34 -40 -46 -11 -13 -45 -51 -75 -86 -30 -35 -64 -73 -75 -85 -11 -12 -40 -46 -65 -75 -25 -29 -70 -80 -102 -113 -31 -34 -55 -63 -53 -66 2 -3 272 -4 602 -2 l598 3 43 52 c52 64 70 85 153 178 37 41 79 90 95 109 16 19 50 58 75 85 26 28 66 73 89 100 23 28 49 56 58 63 12 9 244 12 1083 12 l1067 0 57 68 c32 37 86 99 120 137 131 148 240 271 260 294 11 14 58 68 105 120 46 53 93 107 105 120 11 12 29 33 40 45 11 13 45 52 75 87 30 35 62 70 70 79 8 8 25 27 36 42 23 30 133 154 201 227 24 25 43 52 43 59 0 13 -42 109 -61 142 -5 8 -12 22 -15 30 -7 17 -41 90 -110 235 -26 55 -61 129 -77 165 -16 36 -34 72 -38 80 -5 8 -12 22 -15 30 -4 8 -28 59 -53 113 l-46 97 -1935 0 -1936 0 -18 -22z"/> </g> </svg> 